<?xml version="1.0" standalone="no"?>
<!DOCTYPE svg PUBLIC "-//W3C//DTD SVG 20010904//EN"
 "http://www.w3.org/TR/2001/REC-SVG-20010904/DTD/svg10.dtd">
<svg version="1.0" xmlns="http://www.w3.org/2000/svg"
 width="626.000000pt" height="626.000000pt" viewBox="0 0 626.000000 626.000000"
 preserveAspectRatio="xMidYMid meet">

<g transform="translate(0.000000,626.000000) scale(0.100000,-0.100000)"
fill="#000000" stroke="none">
<path d="M2940 5209 c-368 -41 -743 -197 -1033 -428 -244 -195 -426 -422 -563
-706 -361 -743 -239 -1612 315 -2240 105 -119 101 -118 136 -20 37 101 164
351 200 393 63 73 180 137 369 201 l79 27 20 55 c41 112 140 221 260 286 l49
27 -4 116 -4 115 -58 55 c-32 30 -68 75 -81 100 -21 41 -58 153 -85 257 -8 33
-14 40 -29 36 -31 -8 -96 15 -124 45 l-27 29 26 59 c25 56 115 294 143 379 13
37 21 43 112 88 l99 48 153 -41 c85 -22 161 -40 170 -40 27 0 23 66 -5 81 -17
9 -24 9 -33 -5 -12 -15 -13 -15 -18 3 -5 19 -76 41 -137 41 -50 0 -41 16 39
68 108 70 228 166 350 279 107 100 115 100 66 3 -39 -76 -82 -127 -131 -156
-54 -32 -44 -41 24 -24 69 17 157 67 198 112 20 22 38 37 41 34 9 -9 -18 -138
-38 -180 -24 -50 -24 -59 1 -46 19 10 82 85 106 126 10 17 14 13 39 -36 15
-30 45 -81 66 -112 22 -31 39 -59 39 -61 0 -2 -25 -4 -55 -5 -66 -2 -225 -28
-263 -44 -15 -6 -38 -10 -51 -9 -22 3 -23 1 -16 -36 4 -21 9 -40 11 -42 2 -2
54 10 116 28 169 47 247 63 279 56 19 -4 62 -42 128 -113 55 -59 136 -138 180
-177 79 -68 81 -71 77 -109 -7 -58 -61 -160 -108 -200 -27 -23 -55 -37 -84
-42 -41 -6 -44 -9 -55 -48 -43 -163 -80 -265 -116 -314 -14 -18 -46 -47 -73
-65 l-48 -32 -12 -113 c-7 -62 -11 -114 -9 -115 2 -1 30 -15 62 -31 112 -56
216 -190 233 -300 l6 -41 110 -35 c61 -19 154 -55 207 -80 99 -48 146 -89 214
-187 44 -63 156 -333 160 -384 1 -10 5 -19 9 -19 11 0 164 175 229 262 503
675 531 1615 69 2317 -89 136 -160 222 -275 336 -324 322 -749 523 -1210 575
-105 12 -337 11 -445 -1z"/>
<path d="M2688 3995 c-15 -15 -30 -36 -33 -46 -4 -11 -16 -19 -28 -20 -12 0
-31 -4 -42 -8 -18 -7 -17 -10 14 -26 34 -17 35 -17 50 3 9 11 29 36 44 56 19
24 36 36 53 36 21 0 23 -3 14 -19 -16 -32 -12 -60 15 -86 47 -47 121 -17 127
51 l3 36 23 -18 c15 -13 25 -34 29 -62 7 -49 23 -56 23 -9 0 79 -65 122 -200
134 -61 5 -67 4 -92 -22z m125 -27 c6 -19 -11 -48 -28 -48 -18 0 -20 31 -3 48
15 15 25 15 31 0z"/>
<path d="M3527 4009 c-44 -10 -99 -37 -110 -53 -15 -23 -28 -89 -19 -98 6 -6
12 5 17 29 9 50 20 69 43 75 15 4 18 -1 18 -30 0 -64 80 -96 125 -51 17 17 20
30 16 65 -4 37 -2 44 13 44 17 0 77 -59 98 -95 9 -16 13 -17 41 -5 17 7 31 16
31 20 0 10 -26 20 -51 20 -10 0 -19 4 -19 9 0 5 -15 26 -34 45 -30 32 -39 36
-82 35 -27 -1 -66 -5 -87 -10z m-1 -54 c6 -16 -12 -45 -27 -45 -10 0 -12 44
-2 53 11 11 23 8 29 -8z"/>
</g>
</svg>
